<?xml version="1.0" encoding="UTF-8"?>
<svg version="1.1" xmlns="http://www.w3.org/2000/svg" width="512" height="512">
<path d="M0 0 C168.96 0 337.92 0 512 0 C512 168.96 512 337.92 512 512 C343.04 512 174.08 512 0 512 C0 343.04 0 174.08 0 0 Z " fill="#2E56BB" transform="translate(0,0)"/>
<path d="M0 0 C168.96 0 337.92 0 512 0 C512 168.96 512 337.92 512 512 C343.04 512 174.08 512 0 512 C0 343.04 0 174.08 0 0 Z M14 16 C11.53967574 19.6904864 11.71931472 22.47122012 11.74273109 26.73939991 C11.73922502 27.53966462 11.73571895 28.33992932 11.73210663 29.16444448 C11.72273997 31.86879684 11.72772943 34.57293634 11.73257446 37.27729797 C11.72884085 39.22664335 11.72424049 41.17598723 11.71884382 43.12532872 C11.70656263 48.49992844 11.70688029 53.87446616 11.70923257 59.24907672 C11.70963945 65.03856874 11.69861393 70.82804052 11.68911743 76.61752319 C11.67247832 87.96705905 11.66700657 99.31657413 11.66589268 110.66612116 C11.66494356 119.88844707 11.6608401 129.1107661 11.65449142 138.33308983 C11.65270245 140.9856703 11.65091922 143.63825078 11.64914167 146.29083127 C11.64869957 146.9502327 11.64825748 147.60963414 11.64780198 148.28901743 C11.63548955 166.84272654 11.62760126 185.3964333 11.62848854 203.95014668 C11.6285197 204.64999022 11.62855086 205.34983376 11.62858296 206.07088469 C11.62874918 209.61815224 11.62894726 213.1654198 11.62915237 216.71268735 C11.62919226 217.41721361 11.62923215 218.12173987 11.62927325 218.84761541 C11.62935413 220.27234013 11.62943772 221.69706486 11.62952404 223.12178959 C11.63074962 245.28947124 11.61573672 267.45709171 11.58837891 289.62475586 C11.55767 314.51814134 11.54044571 339.41148662 11.54230535 364.30489224 C11.54297027 377.48983772 11.53743333 390.67471422 11.51594925 403.85964394 C11.49777583 415.08507413 11.49335844 426.31040407 11.5069681 437.53584258 C11.51351722 443.26615593 11.51354497 448.99627676 11.4962616 454.72657204 C11.48061157 459.96913282 11.48331157 465.21134713 11.50082986 470.45389905 C11.50391763 472.35363589 11.50020107 474.25339808 11.48910971 476.15310506 C11.47505638 478.73018537 11.48552094 481.30603893 11.50222206 483.88307667 C11.4922857 484.62531244 11.48234934 485.36754821 11.47211188 486.13227597 C11.54198254 491.21153029 12.78646329 494.09901054 16 498 C19.6904864 500.46032426 22.47122012 500.28068528 26.73939991 500.25726891 C27.93979697 500.26252802 27.93979697 500.26252802 29.16444448 500.26789337 C31.86879684 500.27726003 34.57293634 500.27227057 37.27729797 500.26742554 C39.22664335 500.27115915 41.17598723 500.27575951 43.12532872 500.28115618 C48.49992844 500.29343737 53.87446616 500.29311971 59.24907672 500.29076743 C65.03856874 500.29036055 70.82804052 500.30138607 76.61752319 500.31088257 C87.96705905 500.32752168 99.31657413 500.33299343 110.66612116 500.33410732 C119.88844707 500.33505644 129.1107661 500.3391599 138.33308983 500.34550858 C140.9856703 500.34729755 143.63825078 500.34908078 146.29083127 500.35085833 C146.9502327 500.35130043 147.60963414 500.35174252 148.28901743 500.35219802 C166.84272654 500.36451045 185.3964333 500.37239874 203.95014668 500.37151146 C204.64999022 500.3714803 205.34983376 500.37144914 206.07088469 500.37141704 C209.61815224 500.37125082 213.1654198 500.37105274 216.71268735 500.37084763 C217.41721361 500.37080774 218.12173987 500.37076785 218.84761541 500.37072675 C220.27234013 500.37064587 221.69706486 500.37056228 223.12178959 500.37047596 C245.28947124 500.36925038 267.45709171 500.38426328 289.62475586 500.41162109 C314.51814134 500.44233 339.41148662 500.45955429 364.30489224 500.45769465 C377.48983772 500.45702973 390.67471422 500.46256667 403.85964394 500.48405075 C415.08507413 500.50222417 426.31040407 500.50664156 437.53584258 500.4930319 C443.26615593 500.48648278 448.99627676 500.48645503 454.72657204 500.5037384 C459.96913282 500.51938843 465.21134713 500.51668843 470.45389905 500.49917014 C472.35363589 500.49608237 474.25339808 500.49979893 476.15310506 500.51089029 C478.73018537 500.52494362 481.30603893 500.51447906 483.88307667 500.49777794 C484.62531244 500.5077143 485.36754821 500.51765066 486.13227597 500.52788812 C491.2072629 500.45807616 494.13941047 499.27243168 498 496 C500.70934313 492.49415175 500.28065008 488.38320479 500.25726891 484.13475895 C500.26252802 482.93218173 500.26252802 482.93218173 500.26789337 481.70531002 C500.27724356 479.00204462 500.27227477 476.29899295 500.26742554 473.59571838 C500.27115997 471.64479726 500.27576065 469.69387763 500.28115618 467.74296039 C500.29342705 462.36868939 500.29312092 456.99448044 500.29076743 451.62019861 C500.2903603 445.82937998 500.30138841 440.03858152 500.31088257 434.24777222 C500.32751543 422.89804057 500.33299313 411.5483297 500.33410732 400.19858689 C500.33505662 390.97675305 500.33916098 381.75492608 500.34550858 372.53309441 C500.34729756 369.88019958 500.34908079 367.22730474 500.35085833 364.5744099 C500.35130043 363.91492657 500.35174252 363.25544324 500.35219802 362.57597557 C500.3645087 344.02262094 500.3723989 325.46926866 500.37151146 306.91590977 C500.3714803 306.21620702 500.37144914 305.51650427 500.37141704 304.79559841 C500.37125082 301.24907372 500.37105274 297.70254903 500.37084763 294.15602434 C500.37080774 293.45164923 500.37076785 292.74727411 500.37072675 292.0215543 C500.37064587 290.5971363 500.37056228 289.1727183 500.37047596 287.74830031 C500.36925011 265.580465 500.38426899 243.41269085 500.41162109 221.24487305 C500.4423252 196.35002499 500.45955463 171.45521712 500.45769465 146.56034893 C500.45702962 133.37489129 500.46257132 120.18950262 500.48405075 107.00406075 C500.50221786 95.77972413 500.5066467 84.55548776 500.4930319 73.33114285 C500.4864799 67.60094644 500.48646533 61.87094259 500.5037384 56.14076424 C500.5193756 50.89952919 500.51670183 45.65864088 500.49917014 40.41741478 C500.49607953 38.51705268 500.49980938 36.61666529 500.51089029 34.71633298 C500.52491856 32.14082433 500.51449908 29.56654766 500.49777794 26.99108219 C500.5077143 26.24650526 500.51765066 25.50192832 500.52788812 24.73478845 C500.47918508 21.20714885 500.09214342 19.14870548 498.21888888 16.12555736 C493.76848306 11.86234574 490.14702376 11.70964281 484.13475895 11.74273109 C483.3330408 11.73922502 482.53132265 11.73571895 481.70531002 11.73210663 C479.00204462 11.72275644 476.29899295 11.72772523 473.59571838 11.73257446 C471.64479726 11.72884003 469.69387763 11.72423935 467.74296039 11.71884382 C462.36868939 11.70657295 456.99448044 11.70687908 451.62019861 11.70923257 C445.82937998 11.7096397 440.03858152 11.69861159 434.24777222 11.68911743 C422.89804057 11.67248457 411.5483297 11.66700687 400.19858689 11.66589268 C390.97675305 11.66494338 381.75492608 11.66083902 372.53309441 11.65449142 C369.88019958 11.65270244 367.22730474 11.65091921 364.5744099 11.64914167 C363.91492657 11.64869957 363.25544324 11.64825748 362.57597557 11.64780198 C344.02262094 11.6354913 325.46926866 11.6276011 306.91590977 11.62848854 C305.86635565 11.62853528 305.86635565 11.62853528 304.79559841 11.62858296 C301.24907372 11.62874918 297.70254903 11.62894726 294.15602434 11.62915237 C293.09946167 11.62921221 293.09946167 11.62921221 292.0215543 11.62927325 C290.5971363 11.62935413 289.1727183 11.62943772 287.74830031 11.62952404 C265.580465 11.63074989 243.41269085 11.61573101 221.24487305 11.58837891 C196.35002499 11.5576748 171.45521712 11.54044537 146.56034893 11.54230535 C133.37489129 11.54297038 120.18950262 11.53742868 107.00406075 11.51594925 C95.77972413 11.49778214 84.55548776 11.4933533 73.33114285 11.5069681 C67.60094644 11.5135201 61.87094259 11.51353467 56.14076424 11.4962616 C50.89952919 11.4806244 45.65864088 11.48329817 40.41741478 11.50082986 C38.51705268 11.50392047 36.61666529 11.50019062 34.71633298 11.48910971 C32.14082433 11.47508144 29.56654766 11.48550092 26.99108219 11.50222206 C25.87421679 11.48731752 25.87421679 11.48731752 24.73478845 11.47211188 C19.86871604 11.53929349 17.41038701 12.54014483 14 16 Z " fill="#3158BC" transform="translate(0,0)"/>
<path d="M0 0 C0.80026471 -0.00350607 1.60052941 -0.00701215 2.42504457 -0.01062447 C5.12939693 -0.01999112 7.83353643 -0.01500166 10.53789806 -0.01015663 C12.48724344 -0.01389025 14.43658732 -0.0184906 16.38592881 -0.02388728 C21.76052853 -0.03616847 27.13506625 -0.03585081 32.50967681 -0.03349853 C38.29916883 -0.03309165 44.08864061 -0.04411716 49.87812328 -0.05361366 C61.22765914 -0.07025277 72.57717422 -0.07572453 83.92672125 -0.07683842 C93.14904716 -0.07778754 102.37136619 -0.08189099 111.59368992 -0.08823967 C114.24627039 -0.09002865 116.89885087 -0.09181188 119.55143136 -0.09358943 C120.54053351 -0.09425257 120.54053351 -0.09425257 121.54961752 -0.09492911 C140.10332663 -0.10724154 158.65703339 -0.11512984 177.21074677 -0.11424255 C178.26051208 -0.11419582 178.26051208 -0.11419582 179.33148478 -0.11414814 C182.87875233 -0.11398192 186.42601989 -0.11378383 189.97328744 -0.11357872 C191.03007683 -0.11351889 191.03007683 -0.11351889 192.1082155 -0.11345784 C193.53294022 -0.11337697 194.95766495 -0.11329337 196.38238968 -0.11320706 C218.55007133 -0.11198148 240.7176918 -0.12699437 262.88535595 -0.15435219 C287.77874143 -0.18506109 312.67208671 -0.20228539 337.56549233 -0.20042574 C350.75043781 -0.19976082 363.93531431 -0.20529776 377.12024403 -0.22678185 C388.34567422 -0.24495526 399.57100416 -0.24937265 410.79644267 -0.235763 C416.52675602 -0.22921387 422.25687685 -0.22918613 427.98717213 -0.2464695 C433.22973291 -0.26211952 438.47194722 -0.25941953 443.71449914 -0.24190123 C445.61423598 -0.23881346 447.51399817 -0.24253003 449.41370515 -0.25362138 C451.99078546 -0.26767472 454.56663902 -0.25721016 457.14367676 -0.24050903 C457.88591253 -0.25044539 458.6281483 -0.26038175 459.39287606 -0.27061921 C464.47213038 -0.20074855 467.35961063 1.04373219 471.26060009 4.25726891 C473.72092435 7.9477553 473.54128537 10.72848903 473.517869 14.99666882 C473.52137507 15.79693352 473.52488114 16.59719823 473.52849346 17.42171338 C473.53786012 20.12606575 473.53287066 22.83020525 473.52802563 25.53456688 C473.53175924 27.48391226 473.5363596 29.43325614 473.54175627 31.38259763 C473.55403746 36.75719735 473.5537198 42.13173506 473.55136752 47.50634563 C473.55096064 53.29583764 473.56198616 59.08530943 473.57148266 64.8747921 C473.58812177 76.22432795 473.59359352 87.57384304 473.59470741 98.92339007 C473.59565653 108.14571597 473.59975999 117.368035 473.60610867 126.59035873 C473.60789764 129.24293921 473.60968087 131.89551969 473.61145842 134.54810017 C473.61212157 135.53720232 473.61212157 135.53720232 473.61279811 136.54628634 C473.62511054 155.09999544 473.63299883 173.65370221 473.63211155 192.20741558 C473.63206481 193.2571809 473.63206481 193.2571809 473.63201713 194.32815359 C473.63185091 197.87542115 473.63165283 201.4226887 473.63144772 204.96995626 C473.63140783 205.67448251 473.63136794 206.37900877 473.63132684 207.10488431 C473.63124596 208.52960904 473.63116237 209.95433377 473.63107605 211.37905849 C473.62985047 233.54674015 473.64486337 255.71436062 473.67222118 277.88202477 C473.70293009 302.77541024 473.72015438 327.66875553 473.71829474 352.56216115 C473.71762982 365.74710663 473.72316676 378.93198313 473.74465084 392.11691284 C473.76282426 403.34234303 473.76724165 414.56767298 473.75363199 425.79311148 C473.74708287 431.52342484 473.74705512 437.25354567 473.76433849 442.98384094 C473.77998852 448.22640173 473.77728852 453.46861604 473.75977023 458.71116795 C473.75668246 460.6109048 473.76039902 462.51066699 473.77149038 464.41037396 C473.78554371 466.98745427 473.77507916 469.56330783 473.75837803 472.14034557 C473.77328257 473.25369923 473.77328257 473.25369923 473.78848821 474.38954487 C473.71867625 479.46453181 472.53303177 482.39667937 469.26060009 486.25726891 C465.75475184 488.96661203 461.64380488 488.53791898 457.39535904 488.51453781 C456.19278182 488.51979692 456.19278182 488.51979692 454.96591011 488.52516228 C452.26264471 488.53451246 449.55959304 488.52954368 446.85631847 488.52469444 C444.90539735 488.52842887 442.95447772 488.53302956 441.00356048 488.53842509 C435.62928948 488.55069596 430.25508053 488.55038983 424.8807987 488.54803634 C419.08998007 488.54762921 413.29918161 488.55865731 407.50837231 488.56815147 C396.15864066 488.58478434 384.80892979 488.59026203 373.45918698 488.59137623 C364.23735314 488.59232553 355.01552617 488.59642989 345.7936945 488.60277748 C343.14079967 488.60456646 340.48790483 488.60634969 337.83500999 488.60812724 C336.845785 488.60879038 336.845785 488.60879038 335.83657566 488.60946692 C317.28322103 488.62177761 298.72986875 488.62966781 280.17650986 488.62878036 C279.47680711 488.62874921 278.77710436 488.62871805 278.0561985 488.62868595 C274.50967381 488.62851973 270.96314912 488.62832165 267.41662443 488.62811653 C266.71224932 488.62807664 266.0078742 488.62803675 265.28215439 488.62799565 C263.85773639 488.62791478 262.43331839 488.62783118 261.0089004 488.62774487 C238.84106509 488.62651902 216.67329094 488.64153789 194.50547314 488.66889 C169.61062508 488.6995941 144.71581721 488.71682354 119.82094902 488.71496356 C106.63549138 488.71429853 93.45010271 488.71984022 80.26466084 488.74131966 C69.04032422 488.75948677 57.81608785 488.76391561 46.59174294 488.75030081 C40.86154653 488.74374881 35.13154268 488.74373424 29.40136433 488.76100731 C24.16012928 488.77664451 18.91924097 488.77397074 13.67801487 488.75643905 C11.77765277 488.75334844 9.87726538 488.75707829 7.97693307 488.7681592 C5.40142442 488.78218747 2.82714775 488.77176799 0.25168228 488.75504684 C-0.49289465 488.7649832 -1.23747159 488.77491956 -2.00461146 488.78515702 C-5.53225106 488.73645399 -7.59069443 488.34941233 -10.61384255 486.47615778 C-14.87705417 482.02575196 -15.0297571 478.40429267 -14.99666882 472.39202785 C-15.00017489 471.59030971 -15.00368096 470.78859156 -15.00729328 469.96257892 C-15.01664347 467.25931353 -15.01167468 464.55626186 -15.00682545 461.85298729 C-15.01055988 459.90206616 -15.01516056 457.95114654 -15.02055609 456.0002293 C-15.03282696 450.62595829 -15.03252083 445.25174934 -15.03016734 439.87746751 C-15.02976021 434.08664888 -15.04078832 428.29585042 -15.05028248 422.50504112 C-15.06691534 411.15530948 -15.07239304 399.8055986 -15.07350723 388.45585579 C-15.07445653 379.23402195 -15.07856089 370.01219498 -15.08490849 360.79036331 C-15.08669747 358.13746848 -15.0884807 355.48457365 -15.09025824 352.83167881 C-15.09070034 352.17219548 -15.09114243 351.51271215 -15.09159793 350.83324448 C-15.10390861 332.27988985 -15.11179881 313.72653756 -15.11091137 295.17317867 C-15.11088021 294.47347593 -15.11084905 293.77377318 -15.11081695 293.05286732 C-15.11065073 289.50634263 -15.11045265 285.95981794 -15.11024754 282.41329325 C-15.1101877 281.35673058 -15.1101877 281.35673058 -15.11012666 280.2788232 C-15.11004578 278.85440521 -15.10996219 277.42998721 -15.10987587 276.00556921 C-15.10865002 253.83773391 -15.1236689 231.66995976 -15.151021 209.50214195 C-15.18172511 184.6072939 -15.19895454 159.71248603 -15.19709456 134.81761783 C-15.19642953 121.6321602 -15.20197123 108.44677153 -15.22345066 95.26132965 C-15.24161777 84.03699304 -15.24604661 72.81275667 -15.23243181 61.58841176 C-15.22587981 55.85821535 -15.22586524 50.1282115 -15.24313831 44.39803314 C-15.25877551 39.1567981 -15.25610174 33.91590979 -15.23857005 28.67468368 C-15.23547944 26.77432158 -15.23920929 24.87393419 -15.2502902 22.97360189 C-15.26431847 20.39809324 -15.25389899 17.82381656 -15.23717785 15.2483511 C-15.24711421 14.50377416 -15.25705057 13.75919723 -15.26728803 12.99205735 C-15.20010642 8.12598494 -14.19925508 5.66765592 -10.73939991 2.25726891 C-7.04891351 -0.20305536 -4.26817979 -0.02341638 0 0 Z M-2.73939991 12.25726891 C-2.73939991 165.37726891 -2.73939991 318.49726891 -2.73939991 476.25726891 C150.38060009 476.25726891 303.50060009 476.25726891 461.26060009 476.25726891 C461.26060009 323.13726891 461.26060009 170.01726891 461.26060009 12.25726891 C308.14060009 12.25726891 155.02060009 12.25726891 -2.73939991 12.25726891 Z " fill="#F8F9FC" transform="translate(26.739399909973145,11.742731094360352)"/>
<path d="M0 0 C4.74068053 3.96755879 8.12345614 8.57089036 11.25 13.875 C11.79333984 14.77605469 11.79333984 14.77605469 12.34765625 15.6953125 C16.05884022 23.39386158 15.36889332 34.14537846 13.44140625 42.29296875 C8.96918483 54.25500043 0.93505155 61.13968476 -10.125 66.6953125 C-14.48502801 68.11420093 -18.21426395 68.14112737 -22.75 67.875 C-22.62995605 68.48456543 -22.50991211 69.09413086 -22.38623047 69.72216797 C-19.76121994 83.09910311 -17.23631935 96.4925583 -14.84356689 109.91290283 C-14.57368016 111.4246823 -14.30232664 112.93620067 -14.02947998 114.44744873 C-13.64412851 116.58529781 -13.26460783 118.7241021 -12.88671875 120.86328125 C-12.66717529 122.09602783 -12.44763184 123.32877441 -12.22143555 124.59887695 C-11.75 127.875 -11.75 127.875 -11.75 132.875 C22.57 132.875 56.89 132.875 92.25 132.875 C92.25 141.125 92.25 149.375 92.25 157.875 C59.58 157.875 26.91 157.875 -6.75 157.875 C-5.43 164.805 -4.11 171.735 -2.75 178.875 C-2.75 181.185 -2.75 183.495 -2.75 185.875 C-1.87204269 185.85702504 -1.87204269 185.85702504 -0.97634888 185.83868694 C13.28774121 185.55116654 27.5515723 185.33626735 41.81791687 185.20144176 C48.71739982 185.13449951 55.61494498 185.04330696 62.51318359 184.89428711 C69.17240952 184.75049955 75.82920903 184.67528149 82.49005127 184.64159584 C85.02923245 184.61759729 87.56830491 184.57072859 90.10662842 184.50050926 C109.49766963 183.98547917 109.49766963 183.98547917 114.07522011 187.12804413 C117.29870009 190.55760358 118.74346448 194.44145435 120.25 198.875 C121.1990428 200.65141631 122.17598497 202.41369551 123.19921875 204.1484375 C124.11505599 205.84730325 125.02775233 207.5478655 125.9375 209.25 C130.06846255 216.89956446 134.26858487 224.50318779 138.5625 232.0625 C143.44499682 240.66058431 148.27005989 249.2890289 153.0625 257.9375 C158.0605412 266.95457154 163.08704218 275.95116556 168.25 284.875 C174.98385065 282.82060489 181.12257995 280.11556315 187.4296875 276.984375 C190.25 275.875 190.25 275.875 193.25 276.875 C194.41674805 278.68505859 194.41674805 278.68505859 195.51171875 281.0234375 C195.90810547 281.86390625 196.30449219 282.704375 196.71289062 283.5703125 C197.11701172 284.45460938 197.52113281 285.33890625 197.9375 286.25 C198.35322266 287.1265625 198.76894531 288.003125 199.19726562 288.90625 C202.25 295.46286176 202.25 295.46286176 202.25 298.875 C196.96970331 301.40884005 191.6860302 303.93544987 186.39916992 306.45556641 C184.60298773 307.31298587 182.80772601 308.17233649 181.01342773 309.03369141 C178.42674419 310.2750125 175.83677523 311.50923615 173.24609375 312.7421875 C172.05348183 313.31729568 172.05348183 313.31729568 170.83677673 313.90402222 C166.36177622 316.02434428 162.05353558 317.66224 157.25 318.875 C156.83862793 318.12742432 156.42725586 317.37984863 156.00341797 316.60961914 C147.05295598 300.35015084 138.05487149 284.11918643 128.96777344 267.93554688 C126.0578433 262.75094139 123.15424129 257.56279362 120.25 252.375 C116.93174868 246.44844225 113.61313539 240.52208954 110.29147339 234.59744263 C109.30680343 232.84108323 108.32234552 231.08460496 107.33789062 229.328125 C106.0934705 227.10786463 104.84869248 224.88780481 103.60351562 222.66796875 C103.04728516 221.67539062 102.49105469 220.6828125 101.91796875 219.66015625 C101.17969849 218.34349976 101.17969849 218.34349976 100.42651367 217.00024414 C99.67351086 215.64002635 98.94529931 214.26559862 98.25 212.875 C37.86 212.38 37.86 212.38 -23.75 211.875 C-26.72 194.715 -29.69 177.555 -32.75 159.875 C-35.68352016 143.76274287 -35.68352016 143.76274287 -38.6484375 127.65625 C-40.17848731 119.31786753 -41.56268391 110.95973689 -42.90520287 102.58924484 C-43.54618593 98.60903617 -44.20041684 94.63097465 -44.85386372 90.65279579 C-45.38595889 87.40315332 -45.90463935 84.15215274 -46.40621948 80.89764404 C-46.9675546 77.25831594 -47.56082523 73.62542359 -48.16015625 69.9921875 C-48.31735138 68.9148938 -48.47454651 67.8376001 -48.63650513 66.72766113 C-49.79107184 59.9651513 -51.88769019 55.44319693 -56.12440491 50.0324707 C-61.98031029 42.2605819 -61.8262737 32.55877654 -61.09912109 23.24316406 C-59.8768894 14.95250153 -54.97983641 6.87739352 -48.77734375 1.3359375 C-33.78361427 -9.46879241 -15.44352398 -10.97917755 0 0 Z " fill="#FCFDFE" transform="translate(209.75,88.125)"/>
<path d="M0 0 C0.6754914 3.54004203 1.33880798 7.08226169 2 10.625 C2.19078125 11.62402344 2.3815625 12.62304688 2.578125 13.65234375 C4.58489187 24.47455082 4.58489187 24.47455082 4 28 C1.98046875 30.24609375 1.98046875 30.24609375 -0.8125 32.4375 C-17.44456214 46.42157707 -27.37624246 67.4009489 -29.81689453 88.83276367 C-30.8469879 101.02494882 -30.75461713 113.28378511 -27 125 C-26.64808594 126.13566406 -26.29617187 127.27132812 -25.93359375 128.44140625 C-21.5463064 141.63222729 -15.29427052 152.66762596 -6 163 C-5.06220703 164.06154297 -5.06220703 164.06154297 -4.10546875 165.14453125 C10.71792072 180.96654906 33.74806492 191.47217762 55.43359375 192.203125 C66.04109584 192.36846976 75.69839838 191.75424766 86 189 C87.010625 188.73316406 88.02125 188.46632813 89.0625 188.19140625 C101.65422967 184.42393394 113.28756625 177.82516411 123 169 C124.35544922 167.78376953 124.35544922 167.78376953 125.73828125 166.54296875 C139.6023529 153.44592735 146.32176625 137.98107353 152 120 C156.63012653 124.15190576 159.26419718 129.97872385 162.3125 135.3125 C163.31893555 137.00536133 163.31893555 137.00536133 164.34570312 138.73242188 C164.97025391 139.82748047 165.59480469 140.92253906 166.23828125 142.05078125 C166.81618408 143.04762939 167.39408691 144.04447754 167.98950195 145.0715332 C169.28127755 148.81515444 168.59638748 150.44799915 167 154 C153.30308848 181.43273472 128.04991817 203.20049427 99 213 C94.69656977 214.18733196 90.38220769 215.15293639 86 216 C85.22011719 216.16846436 84.44023437 216.33692871 83.63671875 216.51049805 C53.51075287 222.6463513 22.34418761 215.99205511 -3.37109375 199.5078125 C-29.7634352 181.75206141 -47.65872726 154.9526218 -54.6796875 124.00390625 C-60.09552675 93.69746334 -55.0021299 61.91069737 -38.05859375 36.03515625 C-36.10036241 33.30282955 -34.0749742 30.64449687 -32 28 C-31.00806641 26.68515625 -31.00806641 26.68515625 -29.99609375 25.34375 C-25.78967436 19.87787431 -21.36942959 15.31506887 -16 11 C-15.14664063 10.30648437 -14.29328125 9.61296875 -13.4140625 8.8984375 C-10.95521484 6.91549583 -8.48791392 4.94632722 -6 3 C-4.92492187 2.14148438 -4.92492187 2.14148438 -3.828125 1.265625 C-2 0 -2 0 0 0 Z " fill="#FCFDFE" transform="translate(156,213)"/>
<path d="M0 0 C54.47188264 0 54.47188264 0 64.703125 9.59765625 C71.86192954 17.22560575 73.30961252 26.48565568 73.21875 36.60546875 C72.63179127 45.7138105 69.44896867 53.03991589 62.625 59.1875 C50.49034887 68.95130543 36.15392441 67 21 67 C21 81.85 21 96.7 21 112 C14.07 112 7.14 112 0 112 C0 75.04 0 38.08 0 0 Z " fill="#F9FAFD" transform="translate(359,78)"/>
<path d="M0 0 C21.93273543 0 21.93273543 0 27.671875 5.61328125 C30.52692605 9.17078259 30.68211758 12.62959242 30.5 17.0625 C30.50386719 18.10374023 30.50386719 18.10374023 30.5078125 19.16601562 C30.42360221 23.59968732 29.6587515 26.454998 27 30 C19.3993025 37.07651146 9.96603554 35 0 35 C0 23.45 0 11.9 0 0 Z " fill="#3158BC" transform="translate(380,94)"/>
<path d="M0 0 C2.5859842 1.19353117 4.631424 2.47020936 6.9375 4.1875 C9.75680903 6.19177667 9.75680903 6.19177667 12.4375 6.0625 C15.48690865 4.79811105 17.85813363 3.08664929 20.44921875 1.05859375 C22 0 22 0 24 0 C24.32421875 2.71875 24.32421875 2.71875 24 6 C21.76953125 8.40625 21.76953125 8.40625 18.8125 10.5 C17.84957031 11.2115625 16.88664062 11.923125 15.89453125 12.65625 C13 14 13 14 10.40625 13.390625 C3.00196382 9.11152455 3.00196382 9.11152455 0 6 C-0.5 2.625 -0.5 2.625 0 0 Z " fill="#F1F3FA" transform="translate(416,165)"/>
<path d="M0 0 C0.73605469 0.52851563 1.47210938 1.05703125 2.23046875 1.6015625 C3.20628906 2.26929688 4.18210937 2.93703125 5.1875 3.625 C6.63189453 4.63433594 6.63189453 4.63433594 8.10546875 5.6640625 C10.89680843 7.31247425 10.89680843 7.31247425 13.6640625 6.375 C15.72446652 5.16218693 17.43109526 3.98543008 19.1875 2.375 C22 0 22 0 24 0 C24.328125 2.72265625 24.328125 2.72265625 24 6 C21.734375 8.37109375 21.734375 8.37109375 18.75 10.4375 C17.77546875 11.13746094 16.8009375 11.83742187 15.796875 12.55859375 C13 14 13 14 10.9375 13.88671875 C6.92233276 12.04913213 3.22426025 10.05527386 0 7 C-0.5625 3.125 -0.5625 3.125 0 0 Z " fill="#F1F4FA" transform="translate(416,176)"/>
</svg>
